<?xml version="1.0" encoding="utf-8"?>
<!-- Generator: Adobe Illustrator 24.0.2, SVG Export Plug-In . SVG Version: 6.00 Build 0)  -->
<svg version="1.1" id="Layer_1" xmlns="http://www.w3.org/2000/svg" xmlns:xlink="http://www.w3.org/1999/xlink" x="0px" y="0px"
	 viewBox="0 0 40 40" style="enable-background:new 0 0 40 40;" xml:space="preserve">
<g>
	<polygon points="15.33,18.78 17.47,18.78 16.4,15.74 	"/>
	<path d="M20.32,2.84C10.09,2.84,1.8,9.38,1.8,17.44c0,5.21,3.47,9.79,8.68,12.37c-0.28,0.98-1.82,6.29-1.88,6.71
		c0,0-0.04,0.31,0.17,0.43c0.2,0.12,0.44,0.03,0.44,0.03c0.58-0.08,6.76-4.42,7.82-5.17c1.07,0.15,2.17,0.23,3.29,0.23
		c10.23,0,18.52-6.54,18.52-14.6C38.83,9.38,30.54,2.84,20.32,2.84z M11.15,21.52c0,0.56-0.48,1.02-1.07,1.02
		c-0.59,0-1.07-0.46-1.07-1.02v-6.35H7.34c-0.58,0-1.05-0.47-1.05-1.05c0-0.58,0.47-1.05,1.05-1.05h5.47c0.58,0,1.05,0.47,1.05,1.05
		c0,0.58-0.47,1.05-1.05,1.05h-1.67V21.52z M20.12,22.38c-0.21,0.1-0.44,0.15-0.68,0.15c-0.45,0-0.79-0.18-0.89-0.47l-0.53-1.38
		l-3.26,0l-0.53,1.39c-0.1,0.29-0.44,0.47-0.89,0.47c-0.24,0-0.47-0.05-0.68-0.15c-0.29-0.14-0.58-0.51-0.25-1.52l2.56-6.73
		c0.18-0.51,0.73-1.04,1.42-1.05c0.7,0.02,1.24,0.54,1.43,1.06l2.55,6.72C20.7,21.87,20.42,22.24,20.12,22.38z M25.52,22.38H22.1
		c-0.56,0-1.02-0.44-1.02-0.98v-7.26c0-0.59,0.49-1.07,1.09-1.07c0.6,0,1.09,0.48,1.09,1.07v6.28h2.27c0.56,0,1.02,0.44,1.02,0.98
		S26.09,22.38,25.52,22.38z M33.89,21.58c-0.04,0.28-0.19,0.53-0.41,0.7c-0.19,0.14-0.41,0.22-0.64,0.22
		c-0.34,0-0.65-0.15-0.85-0.42l-2.51-3.32l-0.37,0.37v2.33c0,0.59-0.48,1.07-1.07,1.07c-0.59,0-1.07-0.48-1.07-1.07v-7.31
		c0-0.59,0.48-1.07,1.07-1.07c0.59,0,1.07,0.48,1.07,1.07v2.3l2.98-2.98c0.15-0.15,0.36-0.24,0.59-0.24c0.27,0,0.53,0.12,0.74,0.32
		c0.19,0.19,0.3,0.43,0.31,0.68c0.02,0.25-0.07,0.48-0.24,0.65l-2.43,2.43l2.63,3.48C33.85,21.02,33.93,21.3,33.89,21.58z"/>
</g>
</svg>
