<?xml version="1.0" encoding="utf-8"?>
<!-- Generator: Adobe Illustrator 16.0.0, SVG Export Plug-In . SVG Version: 6.00 Build 0)  -->
<!DOCTYPE svg PUBLIC "-//W3C//DTD SVG 1.1//EN" "http://www.w3.org/Graphics/SVG/1.1/DTD/svg11.dtd">
<svg version="1.1" id="Layer_1" xmlns="http://www.w3.org/2000/svg" xmlns:xlink="http://www.w3.org/1999/xlink" x="0px" y="0px"
	 width="100px" height="100px" viewBox="0 0 100 100" enable-background="new 0 0 100 100" xml:space="preserve">
<g display="none">
	
		<line display="inline" fill="none" stroke="#002D82" stroke-width="1.7625" stroke-linecap="round" stroke-linejoin="round" stroke-miterlimit="10" x1="45.133" y1="24.583" x2="69.644" y2="24.583"/>
	
		<line display="inline" fill="none" stroke="#002D82" stroke-width="1.7625" stroke-linecap="round" stroke-linejoin="round" stroke-miterlimit="10" x1="45.133" y1="38.684" x2="61.713" y2="38.684"/>
	
		<line display="inline" fill="none" stroke="#002D82" stroke-width="1.7625" stroke-linecap="round" stroke-linejoin="round" stroke-miterlimit="10" x1="45.133" y1="31.633" x2="69.644" y2="31.633"/>
	
		<line display="inline" fill="none" stroke="#002D82" stroke-width="1.7625" stroke-linecap="round" stroke-linejoin="round" stroke-miterlimit="10" x1="38.193" y1="24.583" x2="39.681" y2="24.583"/>
	
		<line display="inline" fill="none" stroke="#002D82" stroke-width="1.7625" stroke-linecap="round" stroke-linejoin="round" stroke-miterlimit="10" x1="38.193" y1="38.684" x2="39.681" y2="38.684"/>
	
		<line display="inline" fill="none" stroke="#002D82" stroke-width="1.7625" stroke-linecap="round" stroke-linejoin="round" stroke-miterlimit="10" x1="38.193" y1="31.633" x2="39.681" y2="31.633"/>
</g>
<polyline display="none" fill="none" stroke="#002D82" stroke-width="1.7592" stroke-linecap="round" stroke-linejoin="round" stroke-miterlimit="10" points="
	37.834,46.357 43.883,40.308 43.883,58.232 "/>
<line display="none" fill="none" stroke="#002D82" stroke-width="1.7592" stroke-linecap="round" stroke-linejoin="round" stroke-miterlimit="10" x1="38.572" y1="58.232" x2="49.193" y2="58.232"/>
<path display="none" fill="none" stroke="#002D82" stroke-width="1.7592" stroke-linecap="round" stroke-linejoin="round" stroke-miterlimit="10" d="
	M65.961,64.608c0.543,1.097,1.88,1.872,3.443,1.872c2.045,0,3.703-1.326,3.703-2.963c0-2.221-1.728-2.715-3.703-2.962
	c-2.557-0.319-3.703-1.326-3.703-2.962c0-1.637,1.658-2.963,3.703-2.963c1.522,0,2.829,0.734,3.398,1.785"/>
<line display="none" fill="none" stroke="#002D82" stroke-width="1.7592" stroke-linecap="round" stroke-linejoin="round" stroke-miterlimit="10" x1="69.404" y1="52.903" x2="69.404" y2="68.209"/>
<path display="none" fill="#FFFFFF" stroke="#002D82" stroke-width="1.7592" stroke-linecap="round" stroke-linejoin="round" stroke-miterlimit="10" d="
	M78.176,25.648c-1.024-5.217-6.084-8.616-11.301-7.592L24.046,27.2h54.379L78.176,25.648z"/>
<path display="none" fill="none" stroke="#002D82" stroke-width="1.7592" stroke-linecap="round" stroke-linejoin="round" stroke-miterlimit="10" d="
	M34.911,62.854c1.219,2.462,4.221,4.202,7.731,4.202c4.591,0,8.313-2.978,8.313-6.65c0-4.987-3.879-6.096-8.313-6.65
	c-5.741-0.718-8.313-2.978-8.313-6.65s3.722-6.65,8.313-6.65c3.416,0,6.352,1.649,7.63,4.006"/>
<line display="none" fill="none" stroke="#002D82" stroke-width="1.7592" stroke-linecap="round" stroke-linejoin="round" stroke-miterlimit="10" x1="42.643" y1="36.575" x2="42.643" y2="70.936"/>
<circle fill="#DCE1E6" cx="78.466" cy="59.072" r="11.826"/>
<circle fill="#DCE1E6" cx="76.841" cy="15.956" r="7.096"/>
<circle fill="#DCE1E6" cx="25.227" cy="15.716" r="4.756"/>
<circle fill="#DCE1E6" cx="80.864" cy="85.088" r="3.51"/>
<circle fill="#DCE1E6" cx="14.464" cy="37.315" r="2.225"/>
<circle fill="#DCE1E6" cx="14.464" cy="81.578" r="4.756"/>
<circle fill="#DCE1E6" cx="32.208" cy="88.916" r="2.225"/>
<circle fill="#DCE1E6" cx="84.754" cy="35.397" r="2.225"/>
<path fill="#FFFFFF" d="M76.692,47.832c4.004-13.505,2.194-23.759,1.093-27.907c-4.821,0.969-14.3,1.932-26.216-1.601
	c-13.038-3.864-23.946,1.138-29.436,4.596c0.971,5.55,1.41,14.337-1.8,25.164c-3.859,13.02,1.114,23.907,4.599,29.438
	c3.077-1.568,6.271-2.707,9.502-3.418c-0.708-1.971-1.346-4.018-1.922-5.873c-0.347-1.117-0.669-2.154-0.966-3.041l-0.048-0.145
	c-1.311-3.9-2.666-7.934,0.319-8.988c2.882-1.02,5.1,3.213,6.519,6.484c0.109,0.254,0.221,0.537,0.335,0.848l-0.023-17.113
	c-0.002-2.343,1.631-4.251,3.642-4.254c0.001,0,0.002,0,0.003,0c1.114,0,2.101,0.598,2.771,1.517l-0.003-2.408
	c-0.003-2.343,1.631-4.251,3.642-4.254c0.002,0,0.004,0,0.005,0c0.987,0,1.911,0.451,2.602,1.27
	c0.674,0.797,1.045,1.854,1.047,2.974v0.696c0.669-0.914,1.65-1.507,2.759-1.509c0.002,0,0.003,0,0.004,0
	c2.01,0,3.647,1.903,3.65,4.243v5.339c0.612-0.783,1.486-1.283,2.467-1.285c0,0,0.002,0,0.003,0c1.848,0,3.354,1.746,3.356,3.896
	v20.445c0,1.48-0.152,2.816-0.411,4.043c7.683,0.584,13.345-0.604,15.864-1.301C76.576,69.336,73.263,59.404,76.692,47.832z"/>
<path fill="#96CDFF" d="M61.238,49.487c-0.001,0-0.002,0-0.002,0c-1.362,0.002-2.471,1.356-2.468,3.019l0.023,8.699
	c0.002,0.242-0.195,0.441-0.439,0.441h-0.001c-0.243,0-0.44-0.197-0.441-0.439l-0.024-8.699l0,0l0,0v-7.957
	c-0.002-1.854-1.244-3.362-2.768-3.362c-0.001,0-0.002,0-0.002,0c-1.524,0.003-2.764,1.514-2.761,3.37l0.026,16.328
	c0,0.244-0.196,0.441-0.439,0.441H51.94c-0.242,0-0.44-0.197-0.44-0.439l-0.026-15.752c0-0.002,0-0.003,0-0.005v-4.011
	c-0.001-0.912-0.299-1.767-0.838-2.406c-0.521-0.616-1.206-0.955-1.929-0.955c-0.001,0-0.003,0-0.003,0
	c-1.525,0.002-2.764,1.514-2.762,3.369l0.027,19.758c0,0.244-0.197,0.441-0.44,0.441c-0.001,0-0.001,0-0.001,0
	c-0.243,0-0.441-0.197-0.441-0.439l-0.02-14.587c-0.001-0.012-0.007-0.021-0.007-0.034c-0.003-1.854-1.244-3.362-2.768-3.362
	c-0.001,0-0.002,0-0.002,0c-1.524,0.002-2.763,1.514-2.76,3.369l0.026,19.757c0,0.217-0.156,0.402-0.369,0.438
	c-0.212,0.035-0.42-0.09-0.49-0.293l-0.252-0.746c-0.344-1.018-0.641-1.896-0.919-2.537c-2.003-4.619-3.771-6.59-5.415-6.004
	c-2.166,0.766-0.951,4.381,0.223,7.877l0.047,0.143c0.3,0.893,0.624,1.936,0.974,3.061c1.337,4.303,3,9.656,5.096,12.531
	c2.917,4.004,7.043,6.121,11.932,6.121c0.008,0,0.014,0,0.021,0c6.435-0.01,13.309-3.605,13.309-13.676V52.5
	C63.71,50.838,62.601,49.487,61.238,49.487z"/>
<path fill="none" stroke="#002D82" stroke-width="1.7643" stroke-linecap="round" stroke-linejoin="round" stroke-miterlimit="10" d="
	M51.915,45.131v-4.011c-0.003-2.103-1.441-3.805-3.212-3.803c-1.771,0.002-3.204,1.708-3.202,3.811l0.027,19.758"/>
<path fill="none" stroke="#002D82" stroke-width="1.7643" stroke-linecap="round" stroke-linejoin="round" stroke-miterlimit="10" d="
	M58.327,52.508v-7.957c-0.002-2.103-1.439-3.805-3.211-3.803s-3.205,1.708-3.201,3.811l0.026,16.328"/>
<path fill="none" stroke="#002D82" stroke-width="1.7643" stroke-linecap="round" stroke-linejoin="round" stroke-miterlimit="10" d="
	M45.501,46.266c-0.003-2.103-1.44-3.805-3.211-3.803c-1.771,0.003-3.204,1.709-3.202,3.812l0.027,19.758
	c-0.451-1.322-0.831-2.502-1.184-3.316c-1.965-4.529-3.912-6.973-5.967-6.244c-2.607,0.922-1.27,4.795,0,8.576
	c1.436,4.277,3.431,12.006,6.13,15.711c3.1,4.254,7.375,6.309,12.311,6.301c5.982-0.008,13.748-3.145,13.748-14.115
	c0-0.082,0-9.604,0-9.604V52.5c-0.002-1.91-1.309-3.457-2.918-3.455c-1.608,0.002-2.91,1.553-2.908,3.462l0.025,8.697"/>
<path fill="none" stroke="#002D82" stroke-width="1.7643" stroke-linecap="round" stroke-linejoin="round" stroke-miterlimit="10" d="
	M63.655,77.393c8.521,0.727,14.627-0.711,17.04-1.432l-0.001-0.004c-3.268-5.836-7.123-16.041-3.578-28
	c4.177-14.09,2.068-24.686,0.985-28.55l-0.001,0.002c-4.928,1.045-14.397,2.051-26.405-1.509
	c-13.512-4.006-24.787,1.438-30.048,4.805c0.941,5.174,1.563,14.123-1.736,25.252c-4.03,13.595,1.504,24.925,4.867,30.144l0-0.004
	c2.711-1.414,6.193-2.85,10.241-3.682"/>
<path fill="none" stroke="#002D82" stroke-width="1.7643" stroke-linecap="round" stroke-linejoin="round" stroke-miterlimit="10" d="
	M59.198,27.283c-2.522-0.389-5.232-1.003-8.098-1.921c-6.553-2.098-12.538-1.604-17.451-0.174"/>
<path fill="none" stroke="#002D82" stroke-width="1.7643" stroke-linecap="round" stroke-linejoin="round" stroke-miterlimit="10" d="
	M51.101,29.714c-4.367-1.397-8.481-1.645-12.195-1.23"/>
</svg>
