<?xml version="1.0" encoding="utf-8"?>
<!-- Generator: Adobe Illustrator 16.0.0, SVG Export Plug-In . SVG Version: 6.00 Build 0)  -->
<!DOCTYPE svg PUBLIC "-//W3C//DTD SVG 1.1//EN" "http://www.w3.org/Graphics/SVG/1.1/DTD/svg11.dtd">
<svg version="1.1" id="Layer_1" xmlns="http://www.w3.org/2000/svg" xmlns:xlink="http://www.w3.org/1999/xlink" x="0px" y="0px"
	 width="100px" height="100px" viewBox="0 0 100 100" enable-background="new 0 0 100 100" xml:space="preserve">
<g display="none">
	
		<line display="inline" fill="none" stroke="#002D82" stroke-width="1.7625" stroke-linecap="round" stroke-linejoin="round" stroke-miterlimit="10" x1="45.133" y1="24.583" x2="69.644" y2="24.583"/>
	
		<line display="inline" fill="none" stroke="#002D82" stroke-width="1.7625" stroke-linecap="round" stroke-linejoin="round" stroke-miterlimit="10" x1="45.133" y1="38.684" x2="61.713" y2="38.684"/>
	
		<line display="inline" fill="none" stroke="#002D82" stroke-width="1.7625" stroke-linecap="round" stroke-linejoin="round" stroke-miterlimit="10" x1="45.133" y1="31.633" x2="69.644" y2="31.633"/>
	
		<line display="inline" fill="none" stroke="#002D82" stroke-width="1.7625" stroke-linecap="round" stroke-linejoin="round" stroke-miterlimit="10" x1="38.193" y1="24.583" x2="39.681" y2="24.583"/>
	
		<line display="inline" fill="none" stroke="#002D82" stroke-width="1.7625" stroke-linecap="round" stroke-linejoin="round" stroke-miterlimit="10" x1="38.193" y1="38.684" x2="39.681" y2="38.684"/>
	
		<line display="inline" fill="none" stroke="#002D82" stroke-width="1.7625" stroke-linecap="round" stroke-linejoin="round" stroke-miterlimit="10" x1="38.193" y1="31.633" x2="39.681" y2="31.633"/>
</g>
<polyline display="none" fill="none" stroke="#002D82" stroke-width="1.7592" stroke-linecap="round" stroke-linejoin="round" stroke-miterlimit="10" points="
	37.834,46.357 43.883,40.308 43.883,58.232 "/>
<line display="none" fill="none" stroke="#002D82" stroke-width="1.7592" stroke-linecap="round" stroke-linejoin="round" stroke-miterlimit="10" x1="38.572" y1="58.232" x2="49.193" y2="58.232"/>
<path display="none" fill="none" stroke="#002D82" stroke-width="1.7592" stroke-linecap="round" stroke-linejoin="round" stroke-miterlimit="10" d="
	M65.961,64.608c0.543,1.097,1.88,1.872,3.443,1.872c2.045,0,3.703-1.326,3.703-2.963c0-2.221-1.728-2.715-3.703-2.962
	c-2.557-0.319-3.703-1.326-3.703-2.962c0-1.637,1.658-2.963,3.703-2.963c1.522,0,2.829,0.734,3.398,1.785"/>
<line display="none" fill="none" stroke="#002D82" stroke-width="1.7592" stroke-linecap="round" stroke-linejoin="round" stroke-miterlimit="10" x1="69.404" y1="52.903" x2="69.404" y2="68.209"/>
<path display="none" fill="#FFFFFF" stroke="#002D82" stroke-width="1.7592" stroke-linecap="round" stroke-linejoin="round" stroke-miterlimit="10" d="
	M78.176,25.648c-1.024-5.217-6.084-8.616-11.301-7.592L24.046,27.2h54.379L78.176,25.648z"/>
<path display="none" fill="none" stroke="#002D82" stroke-width="1.7592" stroke-linecap="round" stroke-linejoin="round" stroke-miterlimit="10" d="
	M34.911,62.854c1.219,2.462,4.221,4.202,7.731,4.202c4.591,0,8.313-2.978,8.313-6.65c0-4.987-3.879-6.096-8.313-6.65
	c-5.741-0.718-8.313-2.978-8.313-6.65s3.722-6.65,8.313-6.65c3.416,0,6.352,1.649,7.63,4.006"/>
<line display="none" fill="none" stroke="#002D82" stroke-width="1.7592" stroke-linecap="round" stroke-linejoin="round" stroke-miterlimit="10" x1="42.643" y1="36.575" x2="42.643" y2="70.936"/>
<circle fill="#DCE1E6" cx="27.919" cy="70.456" r="17.898"/>
<circle fill="#DCE1E6" cx="16.699" cy="34.161" r="6.952"/>
<circle fill="#DCE1E6" cx="86.741" cy="64.744" r="3.512"/>
<circle fill="#DCE1E6" cx="71.216" cy="23.433" r="4.76"/>
<circle fill="#DCE1E6" cx="35.796" cy="10.952" r="2.226"/>
<circle fill="#DCE1E6" cx="85.332" cy="42.577" r="2.227"/>
<circle fill="#DCE1E6" cx="68.462" cy="86.514" r="4.76"/>
<rect x="39.426" y="17.891" fill="#FFFFFF" stroke="#002D82" stroke-width="1.7657" stroke-linecap="round" stroke-linejoin="round" stroke-miterlimit="10" width="13.888" height="12.984"/>
<rect x="31.964" y="24.755" fill="#FFFFFF" stroke="#002D82" stroke-width="1.7657" stroke-linecap="round" stroke-linejoin="round" stroke-miterlimit="10" width="14.272" height="54.824"/>
<rect x="39.426" y="30.875" fill="#96CDFF" stroke="#002D82" stroke-width="1.7657" stroke-linecap="round" stroke-linejoin="round" stroke-miterlimit="10" width="22.184" height="48.704"/>
<polygon fill="#96CDFF" stroke="#002D82" stroke-width="1.7657" stroke-linecap="round" stroke-linejoin="round" stroke-miterlimit="10" points="
	61.609,47.979 61.609,79.579 76.488,79.579 76.488,54.986 "/>
<line fill="none" stroke="#002D82" stroke-width="1.7657" stroke-linecap="round" stroke-linejoin="round" stroke-miterlimit="10" stroke-dasharray="0.4196,4.8952" x1="44.928" y1="45.223" x2="56.471" y2="45.223"/>
<line fill="none" stroke="#002D82" stroke-width="1.7657" stroke-linecap="round" stroke-linejoin="round" stroke-miterlimit="10" stroke-dasharray="0.4196,4.8952" x1="44.928" y1="49.37" x2="56.471" y2="49.37"/>
<line fill="none" stroke="#002D82" stroke-width="1.7657" stroke-linecap="round" stroke-linejoin="round" stroke-miterlimit="10" stroke-dasharray="0.4196,4.8952" x1="44.928" y1="53.519" x2="56.471" y2="53.519"/>
<line fill="none" stroke="#002D82" stroke-width="1.7657" stroke-linecap="round" stroke-linejoin="round" stroke-miterlimit="10" stroke-dasharray="0.4196,4.8952" x1="44.928" y1="57.667" x2="56.471" y2="57.667"/>
<line fill="none" stroke="#002D82" stroke-width="1.7657" stroke-linecap="round" stroke-linejoin="round" stroke-miterlimit="10" stroke-dasharray="0.4196,4.8952" x1="44.928" y1="61.814" x2="56.471" y2="61.814"/>
<line fill="none" stroke="#002D82" stroke-width="1.7657" stroke-linecap="round" stroke-linejoin="round" stroke-miterlimit="10" stroke-dasharray="0.4196,4.8952" x1="44.928" y1="65.963" x2="56.471" y2="65.963"/>
<rect x="47.722" y="71.043" fill="#FFFFFF" stroke="#002D82" stroke-width="1.7657" stroke-linecap="round" stroke-linejoin="round" stroke-miterlimit="10" width="5.592" height="8.536"/>
<line fill="none" stroke="#002D82" stroke-width="1.7657" stroke-linecap="round" stroke-linejoin="round" stroke-miterlimit="10" x1="66.163" y1="57.667" x2="71.935" y2="57.667"/>
<line fill="none" stroke="#002D82" stroke-width="1.7657" stroke-linecap="round" stroke-linejoin="round" stroke-miterlimit="10" x1="66.163" y1="61.814" x2="71.935" y2="61.814"/>
<line fill="none" stroke="#002D82" stroke-width="1.7657" stroke-linecap="round" stroke-linejoin="round" stroke-miterlimit="10" x1="66.163" y1="65.963" x2="71.935" y2="65.963"/>
<line fill="none" stroke="#002D82" stroke-width="1.7657" stroke-linecap="round" stroke-linejoin="round" stroke-miterlimit="10" x1="66.163" y1="70.11" x2="71.935" y2="70.11"/>
<rect x="24.502" y="52.73" fill="#96CDFF" stroke="#002D82" stroke-width="1.7657" stroke-linecap="round" stroke-linejoin="round" stroke-miterlimit="10" width="14.924" height="26.849"/>
<line fill="none" stroke="#002D82" stroke-width="1.7657" stroke-linecap="round" stroke-linejoin="round" stroke-miterlimit="10" stroke-dasharray="0.4196,4.8952" x1="34.901" y1="57.667" x2="29.026" y2="57.667"/>
<line fill="none" stroke="#002D82" stroke-width="1.7657" stroke-linecap="round" stroke-linejoin="round" stroke-miterlimit="10" stroke-dasharray="0.4196,4.8952" x1="34.901" y1="61.814" x2="29.026" y2="61.814"/>
<line fill="none" stroke="#002D82" stroke-width="1.7657" stroke-linecap="round" stroke-linejoin="round" stroke-miterlimit="10" stroke-dasharray="0.4196,4.8952" x1="34.901" y1="65.963" x2="29.026" y2="65.963"/>
<line fill="none" stroke="#002D82" stroke-width="1.7657" stroke-linecap="round" stroke-linejoin="round" stroke-miterlimit="10" stroke-dasharray="0.4196,4.8952" x1="34.901" y1="70.111" x2="29.026" y2="70.111"/>
<line fill="none" stroke="#002D82" stroke-width="1.7657" stroke-linecap="round" stroke-linejoin="round" stroke-miterlimit="10" x1="66.163" y1="74.259" x2="71.935" y2="74.259"/>
<line fill="none" stroke="#002D82" stroke-width="1.7657" stroke-linecap="round" stroke-linejoin="round" stroke-miterlimit="10" stroke-dasharray="0.4196,4.8952" x1="34.901" y1="74.26" x2="29.026" y2="74.26"/>
<line fill="none" stroke="#002D82" stroke-width="1.7657" stroke-linecap="round" stroke-linejoin="round" stroke-miterlimit="10" x1="19.003" y1="79.579" x2="82.03" y2="79.579"/>
<line fill="none" stroke="#002D82" stroke-width="1.7657" stroke-linecap="round" stroke-linejoin="round" stroke-miterlimit="10" x1="49.259" y1="84.34" x2="76.157" y2="84.34"/>
<line fill="none" stroke="#002D82" stroke-width="1.7657" stroke-linecap="round" stroke-linejoin="round" stroke-miterlimit="10" x1="24.876" y1="84.34" x2="33.62" y2="84.34"/>
<polyline fill="none" stroke="#002D82" stroke-width="1.7657" stroke-linecap="round" stroke-linejoin="round" stroke-miterlimit="10" stroke-dasharray="0.4715,4.1399" points="
	38.872,84.34 42.961,84.34 44.882,84.34 "/>
<line fill="none" stroke="#002D82" stroke-width="1.7657" stroke-linecap="round" stroke-linejoin="round" stroke-miterlimit="10" stroke-dasharray="0.4196,4.8952" x1="44.928" y1="36.927" x2="56.471" y2="36.927"/>
<line fill="none" stroke="#002D82" stroke-width="1.7657" stroke-linecap="round" stroke-linejoin="round" stroke-miterlimit="10" stroke-dasharray="0.4196,4.8952" x1="44.928" y1="41.074" x2="56.471" y2="41.074"/>
<line fill="none" stroke="#002D82" stroke-width="1.7657" stroke-linecap="round" stroke-linejoin="round" stroke-miterlimit="10" x1="46.37" y1="17.891" x2="46.37" y2="13.711"/>
<polygon fill="#FFFFFF" stroke="#002D82" stroke-width="1.7657" stroke-linecap="round" stroke-linejoin="round" stroke-miterlimit="10" points="
	61.609,38.525 61.609,47.979 69.049,51.482 69.049,42.028 "/>
</svg>
