<?xml version="1.0" encoding="utf-8"?>
<!-- Generator: Adobe Illustrator 16.0.0, SVG Export Plug-In . SVG Version: 6.00 Build 0)  -->
<!DOCTYPE svg PUBLIC "-//W3C//DTD SVG 1.1//EN" "http://www.w3.org/Graphics/SVG/1.1/DTD/svg11.dtd">
<svg version="1.1" id="Layer_1" xmlns="http://www.w3.org/2000/svg" xmlns:xlink="http://www.w3.org/1999/xlink" x="0px" y="0px"
	 width="100px" height="100px" viewBox="0 0 100 100" enable-background="new 0 0 100 100" xml:space="preserve">
<circle fill="#DCE1E6" cx="31.313" cy="48.63" r="12.595"/>
<circle fill="#DCE1E6" cx="83.608" cy="19.183" r="4.293"/>
<circle fill="#DCE1E6" cx="16.331" cy="30.342" r="4.756"/>
<circle fill="#DCE1E6" cx="81.272" cy="88.812" r="3.51"/>
<circle fill="#DCE1E6" cx="15.027" cy="76.454" r="4.197"/>
<circle fill="#DCE1E6" cx="87.901" cy="50.854" r="2.225"/>
<circle fill="#DCE1E6" cx="42.579" cy="10.797" r="2.225"/>
<path fill="#96CDFF" d="M49.388,38.278v-3.012H24.661v3.012c0,1.383,1.126,2.509,2.511,2.509h19.706
	C48.262,40.787,49.388,39.661,49.388,38.278z"/>
<polygon fill="#FFFFFF" points="34.071,44.385 39.978,44.385 41.734,41.67 32.313,41.67 "/>
<rect x="45.711" y="62.685" fill="#96CDFF" width="3.119" height="8.121"/>
<path fill="#96CDFF" d="M78.365,38.068c0.717-1.66,2.223-3.166,3.883-3.883c-1.66-0.717-3.166-2.222-3.883-3.883
	c-0.717,1.661-2.222,3.166-3.883,3.883C76.144,34.902,77.648,36.408,78.365,38.068z"/>
<path fill="#96CDFF" d="M67.417,26.743c0.529-1.063,1.482-2.015,2.546-2.545c-1.063-0.529-2.017-1.482-2.546-2.545
	c-0.53,1.063-1.481,2.016-2.545,2.545C65.936,24.729,66.887,25.681,67.417,26.743z"/>
<path fill="#96CDFF" d="M63.133,48.774c0.925-2.46,3.188-4.722,5.646-5.646c-2.459-0.926-4.722-3.188-5.646-5.648
	c-0.926,2.46-3.188,4.723-5.647,5.648C59.945,44.053,62.207,46.314,63.133,48.774z"/>
<circle fill="#FFFFFF" cx="62.019" cy="76.459" r="1.659"/>
<path fill="#FFFFFF" d="M71.152,64.668c-1.193-0.401-2.139-1.353-2.529-2.545l-1.671-5.091c-4.091-0.649-8.366-0.993-11.69-1.166
	c-1.451-0.073-2.847,0.436-3.905,1.442c-1.061,1.006-1.645,2.366-1.645,3.829v1.106v9.002v5.115c0,1.9,1.546,3.446,3.446,3.446H55.7
	c-0.532-1-0.836-2.139-0.836-3.349c0-3.944,3.21-7.154,7.154-7.154c3.946,0,7.155,3.21,7.155,7.154c0,1.21-0.304,2.349-0.836,3.349
	H85.53C84.254,72.923,78.924,67.285,71.152,64.668z M57.018,63.152c-0.936,0-1.697-0.761-1.697-1.696s0.762-1.697,1.697-1.697
	s1.697,0.762,1.697,1.697S57.953,63.152,57.018,63.152z"/>
<path fill="#96CDFF" d="M72.507,58.17c-1.436-0.384-2.985-0.705-4.575-0.98l1.529,4.659c0.306,0.93,1.042,1.67,1.973,1.983
	c8.132,2.738,13.696,8.682,14.988,15.946c1.357-0.15,2.42-1.29,2.42-2.687C88.842,68.255,82.43,60.827,72.507,58.17z"/>
<path fill="#96CDFF" d="M62.019,70.187c-3.459,0-6.272,2.813-6.272,6.272s2.813,6.273,6.272,6.273s6.273-2.814,6.273-6.273
	S65.478,70.187,62.019,70.187z M62.019,79.001c-1.4,0-2.54-1.14-2.54-2.542c0-1.4,1.14-2.54,2.54-2.54
	c1.401,0,2.542,1.14,2.542,2.54C64.561,77.861,63.42,79.001,62.019,79.001z"/>
<circle fill="#96CDFF" cx="57.018" cy="61.456" r="0.815"/>
<path fill="none" stroke="#002D82" stroke-width="1.7643" stroke-linecap="round" stroke-linejoin="round" stroke-miterlimit="10" d="
	M46.878,41.229H27.171c-1.63,0-2.95-1.321-2.95-2.95v-3.453h25.608v3.453C49.829,39.907,48.508,41.229,46.878,41.229z"/>
<polyline fill="none" stroke="#002D82" stroke-width="1.7643" stroke-linecap="round" stroke-linejoin="round" stroke-miterlimit="10" points="
	31.503,41.229 33.831,44.827 40.218,44.827 42.546,41.229 "/>
<circle fill="none" stroke="#002D82" stroke-width="1.7643" stroke-linecap="round" stroke-linejoin="round" stroke-miterlimit="10" cx="62.019" cy="76.46" r="6.714"/>
<path fill="none" stroke="#002D82" stroke-width="1.7643" stroke-linecap="round" stroke-linejoin="round" stroke-miterlimit="10" d="
	M27.076,30.44c0,0-2.591-10.209-8.367-10.277"/>
<path fill="none" stroke="#002D82" stroke-width="1.7643" stroke-linecap="round" stroke-linejoin="round" stroke-miterlimit="10" d="
	M31.841,30.44c0,0-0.354-9.208-4.184-13.489"/>
<line fill="none" stroke="#002D82" stroke-width="1.7643" stroke-linecap="round" stroke-linejoin="round" stroke-miterlimit="10" x1="37.024" y1="30.44" x2="37.024" y2="14.987"/>
<path fill="none" stroke="#002D82" stroke-width="1.7643" stroke-linecap="round" stroke-linejoin="round" stroke-miterlimit="10" d="
	M46.974,30.44c0,0,2.519-10.209,8.366-10.277"/>
<path fill="none" stroke="#002D82" stroke-width="1.7643" stroke-linecap="round" stroke-linejoin="round" stroke-miterlimit="10" d="
	M42.208,30.44c0,0,0.282-9.208,4.184-13.489"/>
<circle fill="none" stroke="#002D82" stroke-width="1.7643" stroke-linecap="round" stroke-linejoin="round" stroke-miterlimit="10" cx="62.019" cy="76.46" r="2.1"/>
<path fill="none" stroke="#002D82" stroke-width="1.7643" stroke-linecap="round" stroke-linejoin="round" stroke-miterlimit="10" d="
	M56.477,80.249h-3.318c-2.147,0-3.888-1.741-3.887-3.888v-0.947V61.138c0-3.276,2.742-5.882,6.014-5.711
	c4.914,0.255,11.909,0.864,17.335,2.317c9.354,2.504,16.662,9.663,16.662,19.348l0,0c0,1.743-1.413,3.157-3.157,3.157H67.553"/>
<circle fill="none" stroke="#002D82" stroke-width="1.7643" stroke-linecap="round" stroke-linejoin="round" stroke-miterlimit="10" cx="57.018" cy="61.455" r="1.256"/>
<path fill="none" stroke="#002D82" stroke-width="1.7643" stroke-linecap="round" stroke-linejoin="round" stroke-miterlimit="10" d="
	M86.066,80.258c-1.186-7.685-7.146-13.439-14.773-16.008c-1.065-0.358-1.9-1.195-2.251-2.264l-1.758-5.355"/>
<rect x="45.27" y="62.243" fill="none" stroke="#002D82" stroke-width="1.7643" stroke-linecap="round" stroke-linejoin="round" stroke-miterlimit="10" width="4.002" height="9.003"/>
<path fill="none" stroke="#002D82" stroke-width="1.7643" stroke-linecap="round" stroke-linejoin="round" stroke-miterlimit="10" d="
	M72.493,34.187c2.779,0,5.872,3.093,5.872,5.872c0-2.779,3.094-5.872,5.873-5.872c-2.779,0-5.873-3.094-5.873-5.873
	C78.365,31.093,75.272,34.187,72.493,34.187z"/>
<path fill="none" stroke="#002D82" stroke-width="1.7643" stroke-linecap="round" stroke-linejoin="round" stroke-miterlimit="10" d="
	M63.146,24.198c2.021,0,4.271,2.25,4.271,4.271c0-2.021,2.249-4.271,4.271-4.271c-2.021,0-4.271-2.249-4.271-4.271
	C67.417,21.949,65.168,24.198,63.146,24.198z"/>
<path fill="none" stroke="#002D82" stroke-width="1.7643" stroke-linecap="round" stroke-linejoin="round" stroke-miterlimit="10" d="
	M55.203,43.127c3.753,0,7.93,4.177,7.93,7.93c0-3.753,4.177-7.93,7.93-7.93c-3.753,0-7.93-4.177-7.93-7.93
	C63.133,38.95,58.956,43.127,55.203,43.127z"/>
<path fill="none" stroke="#002D82" stroke-width="1.7643" stroke-linecap="round" stroke-linejoin="round" stroke-miterlimit="10" d="
	M37.024,44.827v27.33v2.206c0,4.141-3.357,7.498-7.499,7.498c-4.141,0-7.498-3.357-7.498-7.498c0-4.142,3.357-7.499,7.498-7.499
	H45.27"/>
</svg>
