<?xml version="1.0" encoding="utf-8"?>
<!-- Generator: Adobe Illustrator 16.0.0, SVG Export Plug-In . SVG Version: 6.00 Build 0)  -->
<!DOCTYPE svg PUBLIC "-//W3C//DTD SVG 1.1//EN" "http://www.w3.org/Graphics/SVG/1.1/DTD/svg11.dtd">
<svg version="1.1" id="Layer_1" xmlns="http://www.w3.org/2000/svg" xmlns:xlink="http://www.w3.org/1999/xlink" x="0px" y="0px"
	 width="100px" height="100px" viewBox="0 0 100 100" enable-background="new 0 0 100 100" xml:space="preserve">
<circle fill="#DCE1E6" cx="53.425" cy="42.959" r="14.863"/>
<circle fill="#DCE1E6" cx="84.763" cy="26.805" r="5.353"/>
<circle fill="#DCE1E6" cx="15.755" cy="47.241" r="4.282"/>
<circle fill="#DCE1E6" cx="12.246" cy="13.74" r="3.509"/>
<circle fill="#DCE1E6" cx="15.755" cy="87.756" r="2.225"/>
<circle fill="#DCE1E6" cx="49.031" cy="14.894" r="4.394"/>
<circle fill="#DCE1E6" cx="88.73" cy="51.635" r="2.225"/>
<path fill="#FFFFFF" d="M33.5,28.824c0.688-3.416,4.356-3.551,6.586-3.627c0.646-0.022,1.52-0.051,1.75-0.185
	c-0.008-0.013-0.017-0.038-0.033-0.07c-1.567-3.243-5.332-5.653-9.368-5.997c-3.523-0.299-9.405,0.167-10.983,0.303v4.022
	c1.548,0.054,6.499,0.631,7.877,5.555H33.5z"/>
<path fill="#96CDFF" d="M17.41,34.952l-0.33,0.475c2.068-1.359,6.627-4.564,8.485-10.183c-0.979-0.564-2.01-0.843-2.844-0.976
	C21.603,28.92,18.993,32.684,17.41,34.952z"/>
<path fill="#96CDFF" d="M54.106,37.229c0.794-1.942,2.563-3.711,4.506-4.506c-1.942-0.794-3.712-2.563-4.506-4.505
	c-0.794,1.942-2.563,3.711-4.505,4.505C51.543,33.518,53.313,35.287,54.106,37.229z"/>
<path fill="#96CDFF" d="M74.387,44.366c1.016-2.853,3.655-5.492,6.508-6.509c-2.853-1.016-5.492-3.656-6.508-6.508
	c-1.017,2.853-3.656,5.492-6.509,6.508C70.73,38.874,73.37,41.513,74.387,44.366z"/>
<path fill="#FFFFFF" d="M35.334,33.913v-4.127c0-0.043-0.036-0.079-0.08-0.079h-7.296c-0.043,0-0.079,0.036-0.079,0.079v4.108
	c0.498,0.174,1.724,0.518,3.609,0.518C33.757,34.411,34.901,34.08,35.334,33.913z"/>
<rect x="17.374" y="19.285" fill="#96CDFF" width="3.196" height="3.981"/>
<path fill="#96CDFF" d="M67.795,23.101c0.596-1.259,1.727-2.39,2.985-2.985c-1.259-0.595-2.39-1.727-2.985-2.985
	c-0.595,1.258-1.727,2.39-2.984,2.985C66.068,20.711,67.2,21.842,67.795,23.101z"/>
<path fill="#96CDFF" d="M77.059,53.512H45.042c2.695,5.157,4.103,10.686,4.188,16.389h7.851v-1.929c0-0.841,0.684-1.524,1.524-1.524
	h3.015c0.84,0,1.523,0.684,1.523,1.524V69.9h17.047c2.018,0,3.66-1.642,3.66-3.66v-3.164v-2.772
	C83.85,56.559,80.803,53.512,77.059,53.512z"/>
<path fill="#96CDFF" d="M39.604,46.914c-3.143-3.802-2.492-7.806-2.18-9.73c0.269-1.653-0.613-2.515-1.229-2.906
	c-0.024,0.117-0.082,0.225-0.185,0.29c-0.118,0.074-1.245,0.725-4.521,0.725c-2.729,0-4.179-0.671-4.239-0.699
	c-0.037-0.018-0.059-0.052-0.089-0.079c-0.614,0.475-0.988,0.981-1.094,1.516c-0.209,1.053,0.59,2.156,1.174,2.96
	c0.521,0.719,1.013,1.397,0.475,1.878c-2.233,1.998-0.033,4.8,0.058,4.915c0.015,0.017,0.028,0.035,0.04,0.055
	c0.123,0.198,0.071,0.458-0.12,0.592c-0.093,0.067-2.302,1.708-0.98,4.812c0.085,0.201,0.011,0.436-0.175,0.549
	c-4.854,2.974-7.792,5.979-8.982,9.189c-3.302,8.9,0.784,19.471,2.127,22.945l0.085,0.22c0.309,0.802,0.952,1.299,1.677,1.299H44.17
	c0.751,0,1.385-0.515,1.697-1.378l0.042-0.114C50.685,70.768,48.446,57.613,39.604,46.914z"/>
<path fill="#FFFFFF" d="M57.963,73.576c0,0.354,0.287,0.643,0.642,0.643h3.015c0.354,0,0.643-0.288,0.643-0.643v-3.232
	c0,0-0.001-0.001-0.001-0.002c0,0,0.001-0.001,0.001-0.002v-2.368c0-0.354-0.289-0.643-0.643-0.643h-3.015
	c-0.354,0-0.642,0.288-0.642,0.643v2.368c0,0.001,0,0.002,0,0.002c0,0.001,0,0.002,0,0.002V73.576z"/>
<path fill="#FFFFFF" d="M80.189,70.783H63.143v2.793c0,0.841-0.684,1.524-1.523,1.524h-3.015c-0.841,0-1.524-0.684-1.524-1.524
	v-2.793h-7.851c-0.032,3.498-0.548,7.056-1.577,10.629H83.85V68.906C83.022,70.038,81.695,70.783,80.189,70.783z"/>
<path fill="#96CDFF" d="M46.738,84.253l-0.041,0.113c-0.152,0.42-0.372,0.781-0.636,1.078h35.315c1.364,0,2.474-1.109,2.474-2.473
	v-0.677H47.382C47.179,82.947,46.974,83.6,46.738,84.253z"/>
<path fill="none" stroke="#002D82" stroke-width="1.7643" stroke-linecap="round" stroke-linejoin="round" stroke-miterlimit="10" d="
	M84.291,63.076v19.896c0,1.609-1.305,2.914-2.914,2.914H44.17"/>
<path fill="none" stroke="#002D82" stroke-width="1.7643" stroke-linecap="round" stroke-linejoin="round" stroke-miterlimit="10" d="
	M44.381,53.071h32.677c3.994,0,7.232,3.237,7.232,7.231v5.938c0,2.266-1.837,4.102-4.102,4.102H62.701"/>
<path fill="none" stroke="#002D82" stroke-width="1.7643" stroke-linecap="round" stroke-linejoin="round" stroke-miterlimit="10" d="
	M67.883,53.071v-3.714c0-1.764-1.43-3.194-3.193-3.194h-9.155c-1.765,0-3.194,1.43-3.194,3.194v3.714"/>
<path fill="none" stroke="#002D82" stroke-width="1.7643" stroke-linecap="round" stroke-linejoin="round" stroke-miterlimit="10" d="
	M61.619,74.66h-3.015c-0.599,0-1.083-0.485-1.083-1.084v-5.604c0-0.599,0.484-1.084,1.083-1.084h3.015
	c0.598,0,1.083,0.485,1.083,1.084v5.604C62.702,74.175,62.217,74.66,61.619,74.66z"/>
<line fill="none" stroke="#002D82" stroke-width="1.7643" stroke-linecap="round" stroke-linejoin="round" stroke-miterlimit="10" x1="47.083" y1="81.854" x2="84.222" y2="81.854"/>
<path fill="none" stroke="#002D82" stroke-width="1.7643" stroke-linecap="round" stroke-linejoin="round" stroke-miterlimit="10" d="
	M29,29.265c-1.389-5.905-7.989-5.558-7.989-5.558v-4.863c0,0,7.294-0.695,11.461-0.339c3.908,0.333,8.009,2.688,9.728,6.245
	c1.014,2.098-7.642-1.042-8.337,4.516"/>
<path fill="none" stroke="#002D82" stroke-width="1.7643" stroke-linecap="round" stroke-linejoin="round" stroke-miterlimit="10" d="
	M22.388,23.809c-1.156,5.236-4.329,9.407-5.802,11.557c-0.25,0.366,0.077,0.86,0.421,0.635c2.271-1.48,7.117-4.806,9.025-10.753"/>
<path fill="none" stroke="#002D82" stroke-width="1.7643" stroke-linecap="round" stroke-linejoin="round" stroke-miterlimit="10" d="
	M35.775,34.195c0,0-1.042,0.657-4.286,0.657c-2.661,0-4.051-0.657-4.051-0.657v-4.41c0-0.287,0.233-0.521,0.521-0.521h7.296
	c0.288,0,0.521,0.233,0.521,0.521V34.195z"/>
<path fill="none" stroke="#002D82" stroke-width="1.7643" stroke-linecap="round" stroke-linejoin="round" stroke-miterlimit="10" d="
	M46.598,74.947"/>
<polyline fill="none" stroke="#002D82" stroke-width="1.7643" stroke-linecap="round" stroke-linejoin="round" stroke-miterlimit="10" points="
	21.011,18.844 16.933,18.844 16.933,23.707 21.011,23.707 "/>
<path fill="none" stroke="#002D82" stroke-width="1.7643" stroke-linecap="round" stroke-linejoin="round" stroke-miterlimit="10" d="
	M27.438,33.781c-4.516,2.779,0.767,6.059-0.017,6.76c-2.6,2.325,0.019,5.536,0.017,5.53c0,0-2.617,1.856-1.131,5.344
	c-3.405,2.086-7.599,5.191-9.165,9.411c-3.43,9.246,0.883,20.027,2.214,23.479c0.351,0.908,1.115,1.581,2.089,1.581H44.17
	c1.008,0,1.769-0.722,2.112-1.67c1.215-3.362,7.685-20.614-6.338-37.583c-2.834-3.429-2.486-6.905-2.084-9.379
	c0.458-2.824-2.072-3.667-2.072-3.667"/>
<line fill="none" stroke="#002D82" stroke-width="1.7643" stroke-linecap="round" stroke-linejoin="round" stroke-miterlimit="10" x1="57.521" y1="70.342" x2="48.827" y2="70.342"/>
<path fill="none" stroke="#002D82" stroke-width="1.7643" stroke-linecap="round" stroke-linejoin="round" stroke-miterlimit="10" d="
	M60.711,32.724c-3.126,0-6.604,3.478-6.604,6.604c0-3.126-3.479-6.604-6.604-6.604c3.126,0,6.604-3.479,6.604-6.604
	C54.106,29.245,57.585,32.724,60.711,32.724z"/>
<path fill="none" stroke="#002D82" stroke-width="1.7643" stroke-linecap="round" stroke-linejoin="round" stroke-miterlimit="10" d="
	M72.598,20.116c-2.272,0-4.803,2.53-4.803,4.803c0-2.273-2.529-4.803-4.803-4.803c2.273,0,4.803-2.53,4.803-4.803
	C67.795,17.586,70.325,20.116,72.598,20.116z"/>
<path fill="none" stroke="#002D82" stroke-width="1.7643" stroke-linecap="round" stroke-linejoin="round" stroke-miterlimit="10" d="
	M83.304,37.857c-4.22,0-8.917,4.697-8.917,8.917c0-4.221-4.697-8.917-8.918-8.917c4.221,0,8.918-4.697,8.918-8.918
	C74.387,33.16,79.084,37.857,83.304,37.857z"/>
</svg>
