<?xml version="1.0" encoding="utf-8"?>
<!-- Generator: Adobe Illustrator 16.0.0, SVG Export Plug-In . SVG Version: 6.00 Build 0)  -->
<!DOCTYPE svg PUBLIC "-//W3C//DTD SVG 1.1//EN" "http://www.w3.org/Graphics/SVG/1.1/DTD/svg11.dtd">
<svg version="1.1" id="Layer_1" xmlns="http://www.w3.org/2000/svg" xmlns:xlink="http://www.w3.org/1999/xlink" x="0px" y="0px"
	 width="100px" height="100px" viewBox="0 0 100 100" enable-background="new 0 0 100 100" xml:space="preserve">
<circle fill="#DCE1E6" cx="55.425" cy="45.815" r="23.236"/>
<circle fill="#DCE1E6" cx="84.192" cy="24.581" r="7.096"/>
<circle fill="#DCE1E6" cx="13.763" cy="21.861" r="4.756"/>
<circle fill="#DCE1E6" cx="60.91" cy="14.151" r="3.509"/>
<circle fill="#DCE1E6" cx="25.405" cy="33.45" r="2.225"/>
<circle fill="#DCE1E6" cx="77.096" cy="81.982" r="3.26"/>
<circle fill="#DCE1E6" cx="39.687" cy="81.63" r="2.225"/>
<circle fill="#DCE1E6" cx="14.838" cy="85.492" r="3.509"/>
<path fill="#96CDFF" d="M37.378,67.975v-1.9c0-1.197,0.975-2.171,2.172-2.171h7.439c-0.139-1.252-0.797-2.391-0.805-2.403
	c-1.681-2.757-4.678-4.525-9.42-5.554l-4.767,3.312c-0.152,0.105-0.352,0.105-0.504,0l-4.767-3.312
	c-7.91,1.714-11.142,5.474-11.142,12.94v3.117c0,1.262,1.026,2.287,2.287,2.287h4.56v-8.846c0-0.244,0.197-0.441,0.441-0.441
	c0.243,0,0.44,0.197,0.44,0.441v8.846H35.77l1.965-5.893C37.532,68.358,37.378,68.189,37.378,67.975z"/>
<path fill="#FFFFFF" d="M36.024,55.387c-0.761-1.157-0.957-3.459-1.005-4.652c-1.02,0.543-2.118,0.859-3.273,0.859
	s-2.254-0.314-3.273-0.856c-0.049,1.196-0.244,3.493-1.006,4.649l4.279,2.971L36.024,55.387z"/>
<polygon fill="#FFFFFF" points="38.659,68.416 36.7,74.291 39.096,74.291 40.837,68.416 "/>
<polygon fill="#FFFFFF" points="41.758,68.416 40.017,74.291 42.792,74.291 44.315,68.416 "/>
<path fill="#FFFFFF" d="M40.288,42.191c-0.12-0.116-0.218-0.257-0.266-0.43c-0.527-1.927-1.239-5.721-1.269-5.882
	c-0.021-0.324-0.27-0.446-0.497-0.449c-3.019-0.033-6.254-1.747-6.809-2.053c-0.001,0-0.001,0-0.001,0
	c-0.072,0-0.129,0.031-0.162,0.064c-0.048,0.048-0.039,0.091-0.036,0.105l1.3,3.473c0.064,0.171,0.016,0.365-0.122,0.485
	c-0.139,0.121-0.337,0.144-0.497,0.059l-5.863-3.101c-0.346-0.179-0.783-0.128-1.061,0.117l-1.531,7.097
	c-0.051,0.194-0.154,0.348-0.284,0.469c1.248,4.21,4.604,8.566,8.556,8.566C35.678,50.711,39.032,46.378,40.288,42.191z"/>
<path fill="#96CDFF" d="M54.312,34.48c0-0.847-0.689-1.536-1.537-1.536c-0.847,0-1.536,0.689-1.536,1.536v26.064h3.073V34.48z"/>
<polygon fill="#FFFFFF" points="45.228,68.416 43.704,74.291 46.476,74.291 47.563,68.416 "/>
<path fill="#96CDFF" d="M55.462,61.613c0-0.104-0.083-0.187-0.187-0.187h-5.002c-0.103,0-0.186,0.083-0.186,0.187v2.29h5.374V61.613
	z"/>
<path fill="#FFFFFF" d="M38.26,66.074v1.459h29.029v-1.459c0-0.711-0.578-1.289-1.289-1.289H39.55
	C38.839,64.785,38.26,65.363,38.26,66.074z"/>
<path fill="#96CDFF" d="M24.271,34.069c0.539-0.61,1.467-0.773,2.205-0.386l4.841,2.56l-0.912-2.447
	c-0.089-0.388,0.011-0.729,0.251-0.973c0.263-0.266,0.645-0.378,1.021-0.304c0.045,0.01,0.09,0.026,0.131,0.05
	c0.034,0.019,3.445,1.948,6.459,1.98c0.743,0.008,1.328,0.536,1.36,1.229c0.005,0,0.729,3.864,1.247,5.75
	c0.126,0.048,0.136,0.014,0.14-0.006c1.442-6.594,1.218-10.779-0.706-13.169c-1.534-1.906-4.188-2.775-8.587-2.808
	c-4.379,0.032-7.021,0.896-8.545,2.789c-1.914,2.376-2.136,6.551-0.699,13.138c0.126,0.056,0.136,0.021,0.141,0.001l1.554-7.204
	C24.187,34.194,24.221,34.125,24.271,34.069z"/>
<polygon fill="#FFFFFF" points="47.372,74.291 50.387,74.291 50.822,68.416 48.459,68.416 "/>
<polygon fill="#FFFFFF" points="64.712,68.416 66.452,74.291 68.849,74.291 66.89,68.416 "/>
<path fill="#96CDFF" d="M60.635,57.687l1.032,6.217H66c1.197,0,2.171,0.974,2.171,2.171v1.9c0,0.215-0.155,0.384-0.356,0.424
	l1.965,5.894h9.008c1.133,0,2.104-0.678,2.258-1.575l2.581-15.03H60.635z"/>
<path fill="#96CDFF" d="M83.806,53.861H60.458c-0.812,0-1.472,0.66-1.472,1.472s0.66,1.472,1.472,1.472h23.348
	c0.812,0,1.472-0.66,1.472-1.472S84.617,53.861,83.806,53.861z"/>
<polygon fill="#FFFFFF" points="61.233,68.416 62.757,74.291 65.532,74.291 63.792,68.416 "/>
<polygon fill="#FFFFFF" points="51.708,68.416 51.272,74.291 54.277,74.291 53.842,68.416 "/>
<polygon fill="#FFFFFF" points="54.727,68.416 55.162,74.291 58.178,74.291 57.089,68.416 "/>
<polygon fill="#FFFFFF" points="57.985,68.416 59.074,74.291 61.845,74.291 60.321,68.416 "/>
<path fill="none" stroke="#002D82" stroke-width="1.7643" stroke-linecap="round" stroke-linejoin="round" stroke-miterlimit="10" d="
	M66,64.344H39.55c-0.956,0-1.73,0.775-1.73,1.73v1.9H67.73v-1.9C67.73,65.119,66.955,64.344,66,64.344z"/>
<path fill="none" stroke="#002D82" stroke-width="1.7643" stroke-linecap="round" stroke-linejoin="round" stroke-miterlimit="10" d="
	M50.797,60.985V34.48c0-1.092,0.886-1.978,1.978-1.978l0,0c1.093,0,1.978,0.885,1.978,1.978v26.505"/>
<polyline fill="none" stroke="#002D82" stroke-width="1.7643" stroke-linecap="round" stroke-linejoin="round" stroke-miterlimit="10" points="
	38.313,68.059 36.089,74.732 69.46,74.732 67.235,68.059 "/>
<line fill="none" stroke="#002D82" stroke-width="1.7643" stroke-linecap="round" stroke-linejoin="round" stroke-miterlimit="10" x1="41.403" y1="68.059" x2="39.426" y2="74.732"/>
<line fill="none" stroke="#002D82" stroke-width="1.7643" stroke-linecap="round" stroke-linejoin="round" stroke-miterlimit="10" x1="44.864" y1="68.059" x2="43.134" y2="74.732"/>
<line fill="none" stroke="#002D82" stroke-width="1.7643" stroke-linecap="round" stroke-linejoin="round" stroke-miterlimit="10" x1="48.078" y1="68.059" x2="46.842" y2="74.732"/>
<line fill="none" stroke="#002D82" stroke-width="1.7643" stroke-linecap="round" stroke-linejoin="round" stroke-miterlimit="10" x1="51.291" y1="68.059" x2="50.797" y2="74.732"/>
<line fill="none" stroke="#002D82" stroke-width="1.7643" stroke-linecap="round" stroke-linejoin="round" stroke-miterlimit="10" x1="64.146" y1="68.059" x2="66.123" y2="74.732"/>
<line fill="none" stroke="#002D82" stroke-width="1.7643" stroke-linecap="round" stroke-linejoin="round" stroke-miterlimit="10" x1="60.685" y1="68.059" x2="62.415" y2="74.732"/>
<line fill="none" stroke="#002D82" stroke-width="1.7643" stroke-linecap="round" stroke-linejoin="round" stroke-miterlimit="10" x1="57.472" y1="68.059" x2="58.707" y2="74.732"/>
<line fill="none" stroke="#002D82" stroke-width="1.7643" stroke-linecap="round" stroke-linejoin="round" stroke-miterlimit="10" x1="54.258" y1="68.059" x2="54.752" y2="74.732"/>
<path fill="none" stroke="#002D82" stroke-width="1.7643" stroke-linecap="round" stroke-linejoin="round" stroke-miterlimit="10" d="
	M49.646,64.344v-2.73c0-0.347,0.281-0.628,0.628-0.628h5.002c0.347,0,0.628,0.281,0.628,0.628v2.73"/>
<path fill="none" stroke="#002D82" stroke-width="1.7643" stroke-linecap="round" stroke-linejoin="round" stroke-miterlimit="10" d="
	M68.968,74.732h9.819c1.354,0,2.501-0.827,2.692-1.941l2.671-15.545"/>
<line fill="none" stroke="#002D82" stroke-width="1.7643" stroke-linecap="round" stroke-linejoin="round" stroke-miterlimit="10" x1="60.114" y1="57.246" x2="61.293" y2="64.344"/>
<path fill="none" stroke="#002D82" stroke-width="1.7643" stroke-linecap="round" stroke-linejoin="round" stroke-miterlimit="10" d="
	M83.806,57.246H60.458c-1.057,0-1.913-0.857-1.913-1.913l0,0c0-1.057,0.856-1.913,1.913-1.913h23.348
	c1.057,0,1.913,0.856,1.913,1.913l0,0C85.719,56.389,84.862,57.246,83.806,57.246z"/>
<path fill="none" stroke="#002D82" stroke-width="1.7643" stroke-linecap="round" stroke-linejoin="round" stroke-miterlimit="10" d="
	M60.243,53.355c0-6.565,5.323-11.888,11.889-11.888s11.889,5.323,11.889,11.888"/>
<line fill="none" stroke="#002D82" stroke-width="1.7643" stroke-linecap="round" stroke-linejoin="round" stroke-miterlimit="10" x1="78.604" y1="70.537" x2="79.709" y2="61.066"/>
<path fill="none" stroke="#002D82" stroke-width="1.7643" stroke-linecap="round" stroke-linejoin="round" stroke-miterlimit="10" d="
	M40.808,42.002c-1.263,4.576-4.843,9.15-9.062,9.15c-4.235,0-7.827-4.611-9.076-9.205"/>
<line fill="none" stroke="#002D82" stroke-width="1.7643" stroke-linecap="round" stroke-linejoin="round" stroke-miterlimit="10" x1="22.874" y1="65.445" x2="22.874" y2="74.732"/>
<path fill="none" stroke="#002D82" stroke-width="1.7643" stroke-linecap="round" stroke-linejoin="round" stroke-miterlimit="10" d="
	M36.089,74.732H17.873c-1.507,0-2.728-1.221-2.728-2.728v-3.118c0-7.77,3.534-11.697,11.677-13.412l4.924,3.421l4.924-3.421
	c4.87,1.025,8.092,2.844,9.895,5.801c0,0,0.895,1.52,0.895,3.068"/>
<path fill="none" stroke="#002D82" stroke-width="1.7643" stroke-linecap="round" stroke-linejoin="round" stroke-miterlimit="10" d="
	M26.822,55.475c1.227-1.017,1.227-5.454,1.227-5.454"/>
<path fill="none" stroke="#002D82" stroke-width="1.7643" stroke-linecap="round" stroke-linejoin="round" stroke-miterlimit="10" d="
	M36.67,55.475c-1.227-1.017-1.227-5.454-1.227-5.454"/>
<path fill="none" stroke="#002D82" stroke-width="1.7643" stroke-linecap="round" stroke-linejoin="round" stroke-miterlimit="10" d="
	M31.462,25.103c9.021,0,12.858,3.365,9.983,16.514c-0.114,0.522-0.855,0.543-0.997,0.028c-0.529-1.932-1.262-5.846-1.262-5.846
	c-0.023-0.484-0.44-0.804-0.925-0.809c-3.168-0.035-6.674-2.039-6.674-2.039c-0.453-0.092-0.86,0.273-0.77,0.69l1.317,3.533
	l-5.863-3.1c-0.559-0.292-1.267-0.17-1.671,0.288l-1.558,7.222c-0.136,0.521-0.884,0.507-0.998-0.019
	c-2.859-13.106,0.923-16.462,9.933-16.462"/>
</svg>
